<svg xmlns="http://www.w3.org/2000/svg" viewBox="0 0 512 512">
  <defs>
    <linearGradient id="bg" x1="0" y1="0" x2="512" y2="512" gradientUnits="userSpaceOnUse">
      <stop stop-color="#f7f8fc"/>
      <stop offset="1" stop-color="#eef0f8"/>
    </linearGradient>
  </defs>

  <!-- White base -->
  <rect width="512" height="512" rx="112" fill="url(#bg)"/>

  <!-- l -->
  <path d="M66,152 L66,340 Q66,356 82,356 L96,356"
        fill="none" stroke="#5BA4E6" stroke-width="30" stroke-linecap="round" stroke-linejoin="round"/>

  <!-- i stem -->
  <path d="M172,226 L172,356"
        fill="none" stroke="#5BA4E6" stroke-width="30" stroke-linecap="round"/>
  <!-- i dot -->
  <circle cx="172" cy="174" r="18" fill="#5BA4E6"/>

  <!-- f -->
  <path d="M298,174 Q298,154 286,148 Q274,144 264,152 Q256,160 256,176 L256,356"
        fill="none" stroke="#5BA4E6" stroke-width="30" stroke-linecap="round" stroke-linejoin="round"/>
  <!-- f crossbar -->
  <path d="M234,224 L298,224"
        fill="none" stroke="#5BA4E6" stroke-width="26" stroke-linecap="round"/>

  <!-- e -->
  <path d="M374,286 L438,286 Q450,286 450,272 Q450,246 422,234 Q394,222 374,242 Q356,264 366,296 Q378,328 412,334 Q430,332 446,316"
        fill="none" stroke="#5BA4E6" stroke-width="28" stroke-linecap="round" stroke-linejoin="round"/>
</svg>
